{
  "accessors": [
    {
      "bufferView": 2,
      "componentType": 5126,
      "count": 12486,
      "max": [
        1.0000001192092896,
        1.3129856586456299,
        1.010312557220459
      ],
      "min": [
        -1.0606696605682373,
        -1.0000001192092896,
        -0.9992828369140625
      ],
      "type": "VEC3"
    },
    {
      "bufferView": 2,
      "byteOffset": 149832,
      "componentType": 5126,
      "count": 12486,
      "max": [
        1.0,
        1.0,
        1.0
      ],
      "min": [
        -1.0,
        -1.0,
        -1.0
      ],
      "type": "VEC3"
    },
    {
      "bufferView": 1,
      "componentType": 5126,
      "count": 12486,
      "max": [
        0.8750001788139343,
        1.0000001192092896
      ],
      "min": [
        0.125,
        0.0
      ],
      "type": "VEC2"
    },
    {
      "bufferView": 0,
      "componentType": 5125,
      "count": 67392,
      "type": "SCALAR"
    },
    {
      "bufferView": 2,
      "byteOffset": 299664,
      "componentType": 5126,
      "count": 24727,
      "max": [
        -0.9177225232124329,
        1.1910814046859741,
        0.9748296737670898
      ],
      "min": [
        -1.1712700128555298,
        -0.666698157787323,
        -0.963717520236969
      ],
      "type": "VEC3"
    },
    {
      "bufferView": 2,
      "byteOffset": 596388,
      "componentType": 5126,
      "count": 24727,
      "max": [
        1.0,
        1.0,
        1.0
      ],
      "min": [
        -1.0,
        -1.0,
        -1.0
      ],
      "type": "VEC3"
    },
    {
      "bufferView": 1,
      "byteOffset": 99888,
      "componentType": 5126,
      "count": 24727,
      "max": [
        1.000000238418579,
        1.0000001192092896
      ],
      "min": [
        0.0,
        0.0
      ],
      "type": "VEC2"
    },
    {
      "bufferView": 0,
      "byteOffset": 269568,
      "componentType": 5125,
      "count": 125952,
      "type": "SCALAR"
    },
    {
      "bufferView": 2,
      "byteOffset": 893112,
      "componentType": 5126,
      "count": 203,
      "max": [
        -1.0123060941696167,
        1.1863059997558594,
        0.9457683563232422
      ],
      "min": [
        -1.012306571006775,
        -0.28440138697624207,
        -0.9190170764923096
      ],
      "type": "VEC3"
    },
    {
      "bufferView": 2,
      "byteOffset": 895548,
      "componentType": 5126,
      "count": 203,
      "max": [
        1.0,
        0.9995136260986328,
        0.013947132974863052
      ],
      "min": [
        -1.0,
        -0.9996463060379028,
        -0.013946985825896263
      ],
      "type": "VEC3"
    },
    {
      "bufferView": 1,
      "byteOffset": 297704,
      "componentType": 5126,
      "count": 203,
      "max": [
        1.0008097887039185,
        1.0000001192092896
      ],
      "min": [
        -0.0008365511894226074,
        0.0
      ],
      "type": "VEC2"
    },
    {
      "bufferView": 0,
      "byteOffset": 773376,
      "componentType": 5125,
      "count": 864,
      "type": "SCALAR"
    }
  ],
  "asset": {
    "extras": {
      "author": "321_Blender (https://sketchfab.com/321_Blender)",
      "license": "CC-BY-4.0 (http://creativecommons.org/licenses/by/4.0/)",
      "source": "https://sketchfab.com/3d-models/giant-screen-tv-7301c9c1deba4f68b6264d6ef7415e19",
      "title": "Giant Screen TV"
    },
    "generator": "Sketchfab-12.81.0",
    "version": "2.0"
  },
  "bufferViews": [
    {
      "buffer": 0,
      "byteLength": 776832,
      "name": "floatBufferViews",
      "target": 34963
    },
    {
      "buffer": 0,
      "byteLength": 299328,
      "byteOffset": 776832,
      "byteStride": 8,
      "name": "floatBufferViews",
      "target": 34962
    },
    {
      "buffer": 0,
      "byteLength": 897984,
      "byteOffset": 1076160,
      "byteStride": 12,
      "name": "floatBufferViews",
      "target": 34962
    }
  ],
  "buffers": [
    {
      "byteLength": 1974144,
      "uri": "scene.bin"
    }
  ],
  "materials": [
    {
      "doubleSided": true,
      "name": "Material.001",
      "pbrMetallicRoughness": {
        "baseColorFactor": [
          0.043735,
          0.0423114,
          0.0331048,
          1.0
        ],
        "metallicFactor": 0.0,
        "roughnessFactor": 0.5
      }
    },
    {
      "doubleSided": true,
      "name": "Material.003",
      "pbrMetallicRoughness": {
        "baseColorFactor": [
          0.53948,
          0.53948,
          0.53948,
          1.0
        ],
        "metallicFactor": 0.2,
        "roughnessFactor": 0.45
      }
    },
    {
      "doubleSided": true,
      "name": "Material.002",
      "pbrMetallicRoughness": {
        "baseColorFactor": [
          0.0241576,
          0.0273209,
          0.0273209,
          1.0
        ],
        "metallicFactor": 0.0,
        "roughnessFactor": 0.325688
      }
    }
  ],
  "meshes": [
    {
      "name": "Object_0",
      "primitives": [
        {
          "attributes": {
            "NORMAL": 1,
            "POSITION": 0,
            "TEXCOORD_0": 2
          },
          "indices": 3,
          "material": 0,
          "mode": 4
        }
      ]
    },
    {
      "name": "Object_1",
      "primitives": [
        {
          "attributes": {
            "NORMAL": 5,
            "POSITION": 4,
            "TEXCOORD_0": 6
          },
          "indices": 7,
          "material": 1,
          "mode": 4
        }
      ]
    },
    {
      "name": "Object_2",
      "primitives": [
        {
          "attributes": {
            "NORMAL": 9,
            "POSITION": 8,
            "TEXCOORD_0": 10
          },
          "indices": 11,
          "material": 2,
          "mode": 4
        }
      ]
    }
  ],
  "nodes": [
    {
      "children": [
        1
      ],
      "matrix": [
        1.0,
        0.0,
        0.0,
        0.0,
        0.0,
        2.220446049250313e-16,
        -1.0,
        0.0,
        0.0,
        1.0,
        2.220446049250313e-16,
        0.0,
        0.0,
        0.0,
        0.0,
        1.0
      ],
      "name": "Sketchfab_model"
    },
    {
      "children": [
        2
      ],
      "name": "root"
    },
    {
      "children": [
        3
      ],
      "matrix": [
        1.0,
        0.0,
        0.0,
        0.0,
        0.0,
        2.220446049250313e-16,
        1.0,
        0.0,
        0.0,
        -1.0,
        2.220446049250313e-16,
        0.0,
        0.0,
        0.0,
        0.0,
        1.0
      ],
      "name": "GLTF_SceneRootNode"
    },
    {
      "children": [
        4,
        5,
        6
      ],
      "matrix": [
        1.0422041416168213,
        0.0,
        0.0,
        0.0,
        0.0,
        2.1659679412841797,
        0.0,
        0.0,
        0.0,
        0.0,
        2.1659679412841797,
        0.0,
        0.0,
        0.5579690337181091,
        -0.7779813408851624,
        1.0
      ],
      "name": "Cube_1"
    },
    {
      "mesh": 0,
      "name": "Object_4"
    },
    {
      "mesh": 1,
      "name": "Object_5"
    },
    {
      "mesh": 2,
      "name": "Object_6"
    }
  ],
  "scene": 0,
  "scenes": [
    {
      "name": "Sketchfab_Scene",
      "nodes": [
        0
      ]
    }
  ]
}
