{
  "accessors": [
    {
      "bufferView": 2,
      "componentType": 5126,
      "count": 26095,
      "max": [
        14.256261825561523,
        11.720871925354004,
        23.744659423828125
      ],
      "min": [
        -14.256261825561523,
        -18.56232452392578,
        -27.368764877319336
      ],
      "type": "VEC3"
    },
    {
      "bufferView": 2,
      "byteOffset": 313140,
      "componentType": 5126,
      "count": 26095,
      "max": [
        1.0,
        1.0,
        0.9999991059303284
      ],
      "min": [
        -1.0,
        -1.0,
        -1.0
      ],
      "type": "VEC3"
    },
    {
      "bufferView": 3,
      "componentType": 5126,
      "count": 26095,
      "max": [
        1.0,
        0.9999977350234985,
        1.0,
        1.0
      ],
      "min": [
        -1.0,
        -0.9999826550483704,
        -0.9999961256980896,
        -1.0
      ],
      "type": "VEC4"
    },
    {
      "bufferView": 3,
      "byteOffset": 417520,
      "componentType": 5126,
      "count": 26095,
      "max": [
        0.886274516582489,
        0.886274516582489,
        0.886274516582489,
        1.0
      ],
      "min": [
        0.886274516582489,
        0.886274516582489,
        0.886274516582489,
        1.0
      ],
      "type": "VEC4"
    },
    {
      "bufferView": 1,
      "componentType": 5126,
      "count": 26095,
      "max": [
        0.9969317317008972,
        0.999500036239624
      ],
      "min": [
        0.0005000000237487257,
        0.0005000000237487257
      ],
      "type": "VEC2"
    },
    {
      "bufferView": 1,
      "byteOffset": 208760,
      "componentType": 5126,
      "count": 26095,
      "max": [
        0.9969317317008972,
        0.999500036239624
      ],
      "min": [
        0.0005000000237487257,
        0.0005000000237487257
      ],
      "type": "VEC2"
    },
    {
      "bufferView": 1,
      "byteOffset": 417520,
      "componentType": 5126,
      "count": 26095,
      "max": [
        0.9969317317008972,
        0.999500036239624
      ],
      "min": [
        0.0005000000237487257,
        0.0005000000237487257
      ],
      "type": "VEC2"
    },
    {
      "bufferView": 1,
      "byteOffset": 626280,
      "componentType": 5126,
      "count": 26095,
      "max": [
        0.9969317317008972,
        0.999500036239624
      ],
      "min": [
        0.0005000000237487257,
        0.0005000000237487257
      ],
      "type": "VEC2"
    },
    {
      "bufferView": 0,
      "componentType": 5125,
      "count": 138816,
      "type": "SCALAR"
    }
  ],
  "asset": {
    "extras": {
      "author": "wright_101 (https://sketchfab.com/wright_101)",
      "license": "CC-BY-4.0 (http://creativecommons.org/licenses/by/4.0/)",
      "source": "https://sketchfab.com/3d-models/egg-chair-eero-aarnio-4363b93c1ea74caa8768bbcea426bb81",
      "title": "Egg-chair (Eero Aarnio)"
    },
    "generator": "Sketchfab-12.65.0",
    "version": "2.0"
  },
  "bufferViews": [
    {
      "buffer": 0,
      "byteLength": 555264,
      "name": "floatBufferViews",
      "target": 34963
    },
    {
      "buffer": 0,
      "byteLength": 835040,
      "byteOffset": 555264,
      "byteStride": 8,
      "name": "floatBufferViews",
      "target": 34962
    },
    {
      "buffer": 0,
      "byteLength": 626280,
      "byteOffset": 1390304,
      "byteStride": 12,
      "name": "floatBufferViews",
      "target": 34962
    },
    {
      "buffer": 0,
      "byteLength": 835040,
      "byteOffset": 2016584,
      "byteStride": 16,
      "name": "floatBufferViews",
      "target": 34962
    }
  ],
  "buffers": [
    {
      "byteLength": 2851624,
      "uri": "scene.bin"
    }
  ],
  "images": [
    {
      "uri": "textures/03_Egg-chair_baseColor.png"
    },
    {
      "uri": "textures/03_Egg-chair_metallicRoughness.png"
    },
    {
      "uri": "textures/03_Egg-chair_normal.png"
    }
  ],
  "materials": [
    {
      "doubleSided": true,
      "name": "03_Egg-chair",
      "normalTexture": {
        "index": 2
      },
      "occlusionTexture": {
        "index": 1
      },
      "pbrMetallicRoughness": {
        "baseColorTexture": {
          "index": 0
        },
        "metallicFactor": 0.0,
        "metallicRoughnessTexture": {
          "index": 1
        }
      }
    }
  ],
  "meshes": [
    {
      "name": "Object027_03 Egg-chair_0",
      "primitives": [
        {
          "attributes": {
            "COLOR_0": 3,
            "NORMAL": 1,
            "POSITION": 0,
            "TANGENT": 2,
            "TEXCOORD_0": 4,
            "TEXCOORD_1": 5,
            "TEXCOORD_2": 6,
            "TEXCOORD_3": 7
          },
          "indices": 8,
          "material": 0,
          "mode": 4
        }
      ]
    }
  ],
  "nodes": [
    {
      "children": [
        1
      ],
      "matrix": [
        1.0,
        0.0,
        0.0,
        0.0,
        0.0,
        2.220446049250313e-16,
        -1.0,
        0.0,
        0.0,
        1.0,
        2.220446049250313e-16,
        0.0,
        0.0,
        2.465190328815662e-32,
        -1.1102230246251565e-16,
        1.0
      ],
      "name": "Sketchfab_model"
    },
    {
      "children": [
        2
      ],
      "matrix": [
        0.009999999776482582,
        0.0,
        0.0,
        0.0,
        0.0,
        0.0,
        0.009999999776482582,
        0.0,
        0.0,
        -0.009999999776482582,
        0.0,
        0.0,
        0.0,
        0.0,
        0.0,
        1.0
      ],
      "name": "5ce29d4b78cb407d99a108e6c4150e61.fbx"
    },
    {
      "children": [
        3
      ],
      "name": "RootNode"
    },
    {
      "children": [
        4
      ],
      "matrix": [
        2.5399999618530273,
        0.0,
        0.0,
        0.0,
        0.0,
        5.6399328803925005e-16,
        -2.5399999618530273,
        0.0,
        0.0,
        2.5399999618530273,
        5.6399328803925005e-16,
        0.0,
        -1.78216552734375,
        68.22960662841797,
        -28.461467742919922,
        1.0
      ],
      "name": "Object027"
    },
    {
      "mesh": 0,
      "name": "Object027_03 Egg-chair_0"
    }
  ],
  "samplers": [
    {
      "magFilter": 9729,
      "minFilter": 9987,
      "wrapS": 10497,
      "wrapT": 10497
    }
  ],
  "scene": 0,
  "scenes": [
    {
      "name": "Sketchfab_Scene",
      "nodes": [
        0
      ]
    }
  ],
  "textures": [
    {
      "sampler": 0,
      "source": 0
    },
    {
      "sampler": 0,
      "source": 1
    },
    {
      "sampler": 0,
      "source": 2
    }
  ]
}
