{
  "accessors": [
    {
      "bufferView": 2,
      "componentType": 5126,
      "count": 529,
      "max": [
        2.2447080612182617,
        2.817748785018921,
        9.680858612060547
      ],
      "min": [
        -1.8052918910980225,
        0.11774837970733643,
        8.191621780395508
      ],
      "type": "VEC3"
    },
    {
      "bufferView": 2,
      "byteOffset": 6348,
      "componentType": 5126,
      "count": 529,
      "max": [
        1.0,
        1.0,
        1.0
      ],
      "min": [
        -1.0,
        -1.0,
        -1.0
      ],
      "type": "VEC3"
    },
    {
      "bufferView": 1,
      "componentType": 5126,
      "count": 529,
      "max": [
        4.942922115325928,
        4.487948417663574
      ],
      "min": [
        -3.9429221153259277,
        -3.5799951553344727
      ],
      "type": "VEC2"
    },
    {
      "bufferView": 1,
      "byteOffset": 4232,
      "componentType": 5126,
      "count": 529,
      "max": [
        4.942922115325928,
        4.487948417663574
      ],
      "min": [
        -3.9429221153259277,
        -3.5799951553344727
      ],
      "type": "VEC2"
    },
    {
      "bufferView": 0,
      "componentType": 5125,
      "count": 1275,
      "type": "SCALAR"
    },
    {
      "bufferView": 2,
      "byteOffset": 12696,
      "componentType": 5126,
      "count": 32,
      "max": [
        2.211287498474121,
        2.681112051010132,
        8.20928955078125
      ],
      "min": [
        -1.7673592567443848,
        0.4141765534877777,
        8.20928955078125
      ],
      "type": "VEC3"
    },
    {
      "bufferView": 2,
      "byteOffset": 13080,
      "componentType": 5126,
      "count": 32,
      "max": [
        1.5752053172946034e-07,
        0.0,
        -1.0
      ],
      "min": [
        -4.295471569548681e-07,
        0.0,
        -1.0
      ],
      "type": "VEC3"
    },
    {
      "bufferView": 1,
      "byteOffset": 8464,
      "componentType": 5126,
      "count": 32,
      "max": [
        4.743875503540039,
        4.0496649742126465
      ],
      "min": [
        -3.906855583190918,
        -3.5799942016601563
      ],
      "type": "VEC2"
    },
    {
      "bufferView": 1,
      "byteOffset": 8720,
      "componentType": 5126,
      "count": 32,
      "max": [
        4.743875503540039,
        4.0496649742126465
      ],
      "min": [
        -3.906855583190918,
        -3.5799942016601563
      ],
      "type": "VEC2"
    },
    {
      "bufferView": 0,
      "byteOffset": 5100,
      "componentType": 5125,
      "count": 48,
      "type": "SCALAR"
    },
    {
      "bufferView": 2,
      "byteOffset": 13464,
      "componentType": 5126,
      "count": 100,
      "max": [
        0.9797191619873047,
        2.424048900604248,
        8.211176872253418
      ],
      "min": [
        0.5797195434570313,
        2.3940491676330566,
        8.161176681518555
      ],
      "type": "VEC3"
    },
    {
      "bufferView": 2,
      "byteOffset": 14664,
      "componentType": 5126,
      "count": 100,
      "max": [
        1.0,
        0.9778122305870056,
        1.0
      ],
      "min": [
        -1.0,
        -0.9778110384941101,
        -1.0
      ],
      "type": "VEC3"
    },
    {
      "bufferView": 1,
      "byteOffset": 8976,
      "componentType": 5126,
      "count": 100,
      "max": [
        0.6352427005767822,
        1.826453685760498
      ],
      "min": [
        -0.2936915159225464,
        -0.8783776760101318
      ],
      "type": "VEC2"
    },
    {
      "bufferView": 1,
      "byteOffset": 9776,
      "componentType": 5126,
      "count": 100,
      "max": [
        0.6352427005767822,
        1.826453685760498
      ],
      "min": [
        -0.2936915159225464,
        -0.8783776760101318
      ],
      "type": "VEC2"
    },
    {
      "bufferView": 0,
      "byteOffset": 5292,
      "componentType": 5125,
      "count": 168,
      "type": "SCALAR"
    },
    {
      "bufferView": 2,
      "byteOffset": 15864,
      "componentType": 5126,
      "count": 100,
      "max": [
        0.9797191619873047,
        2.424048900604248,
        8.211176872253418
      ],
      "min": [
        0.5797195434570313,
        2.3940491676330566,
        8.161176681518555
      ],
      "type": "VEC3"
    },
    {
      "bufferView": 2,
      "byteOffset": 17064,
      "componentType": 5126,
      "count": 100,
      "max": [
        1.0,
        0.9778122305870056,
        1.0
      ],
      "min": [
        -1.0,
        -0.9778110384941101,
        -1.0
      ],
      "type": "VEC3"
    },
    {
      "bufferView": 1,
      "byteOffset": 10576,
      "componentType": 5126,
      "count": 100,
      "max": [
        0.6352427005767822,
        1.826453685760498
      ],
      "min": [
        -0.2936915159225464,
        -0.8783776760101318
      ],
      "type": "VEC2"
    },
    {
      "bufferView": 1,
      "byteOffset": 11376,
      "componentType": 5126,
      "count": 100,
      "max": [
        0.6352427005767822,
        1.826453685760498
      ],
      "min": [
        -0.2936915159225464,
        -0.8783776760101318
      ],
      "type": "VEC2"
    },
    {
      "bufferView": 0,
      "byteOffset": 5964,
      "componentType": 5125,
      "count": 168,
      "type": "SCALAR"
    },
    {
      "bufferView": 2,
      "byteOffset": 18264,
      "componentType": 5126,
      "count": 100,
      "max": [
        0.9797191619873047,
        2.424048900604248,
        8.211176872253418
      ],
      "min": [
        0.5797195434570313,
        2.3940491676330566,
        8.161176681518555
      ],
      "type": "VEC3"
    },
    {
      "bufferView": 2,
      "byteOffset": 19464,
      "componentType": 5126,
      "count": 100,
      "max": [
        1.0,
        0.9778122305870056,
        1.0
      ],
      "min": [
        -1.0,
        -0.9778110384941101,
        -1.0
      ],
      "type": "VEC3"
    },
    {
      "bufferView": 1,
      "byteOffset": 12176,
      "componentType": 5126,
      "count": 100,
      "max": [
        0.6352427005767822,
        1.826453685760498
      ],
      "min": [
        -0.2936915159225464,
        -0.8783776760101318
      ],
      "type": "VEC2"
    },
    {
      "bufferView": 1,
      "byteOffset": 12976,
      "componentType": 5126,
      "count": 100,
      "max": [
        0.6352427005767822,
        1.826453685760498
      ],
      "min": [
        -0.2936915159225464,
        -0.8783776760101318
      ],
      "type": "VEC2"
    },
    {
      "bufferView": 0,
      "byteOffset": 6636,
      "componentType": 5125,
      "count": 168,
      "type": "SCALAR"
    },
    {
      "bufferView": 2,
      "byteOffset": 20664,
      "componentType": 5126,
      "count": 100,
      "max": [
        0.9797191619873047,
        2.424048900604248,
        8.211176872253418
      ],
      "min": [
        0.5797195434570313,
        2.3940491676330566,
        8.161176681518555
      ],
      "type": "VEC3"
    },
    {
      "bufferView": 2,
      "byteOffset": 21864,
      "componentType": 5126,
      "count": 100,
      "max": [
        1.0,
        0.9778122305870056,
        1.0
      ],
      "min": [
        -1.0,
        -0.9778110384941101,
        -1.0
      ],
      "type": "VEC3"
    },
    {
      "bufferView": 1,
      "byteOffset": 13776,
      "componentType": 5126,
      "count": 100,
      "max": [
        0.6352427005767822,
        1.826453685760498
      ],
      "min": [
        -0.2936915159225464,
        -0.8783776760101318
      ],
      "type": "VEC2"
    },
    {
      "bufferView": 1,
      "byteOffset": 14576,
      "componentType": 5126,
      "count": 100,
      "max": [
        0.6352427005767822,
        1.826453685760498
      ],
      "min": [
        -0.2936915159225464,
        -0.8783776760101318
      ],
      "type": "VEC2"
    },
    {
      "bufferView": 0,
      "byteOffset": 7308,
      "componentType": 5125,
      "count": 168,
      "type": "SCALAR"
    },
    {
      "bufferView": 2,
      "byteOffset": 23064,
      "componentType": 5126,
      "count": 100,
      "max": [
        0.9797191619873047,
        2.424048900604248,
        8.211176872253418
      ],
      "min": [
        0.5797195434570313,
        2.3940491676330566,
        8.161176681518555
      ],
      "type": "VEC3"
    },
    {
      "bufferView": 2,
      "byteOffset": 24264,
      "componentType": 5126,
      "count": 100,
      "max": [
        1.0,
        0.9778122305870056,
        1.0
      ],
      "min": [
        -1.0,
        -0.9778110384941101,
        -1.0
      ],
      "type": "VEC3"
    },
    {
      "bufferView": 1,
      "byteOffset": 15376,
      "componentType": 5126,
      "count": 100,
      "max": [
        0.6352427005767822,
        1.826453685760498
      ],
      "min": [
        -0.2936915159225464,
        -0.8783776760101318
      ],
      "type": "VEC2"
    },
    {
      "bufferView": 1,
      "byteOffset": 16176,
      "componentType": 5126,
      "count": 100,
      "max": [
        0.6352427005767822,
        1.826453685760498
      ],
      "min": [
        -0.2936915159225464,
        -0.8783776760101318
      ],
      "type": "VEC2"
    },
    {
      "bufferView": 0,
      "byteOffset": 7980,
      "componentType": 5125,
      "count": 168,
      "type": "SCALAR"
    },
    {
      "bufferView": 2,
      "byteOffset": 25464,
      "componentType": 5126,
      "count": 100,
      "max": [
        0.9797191619873047,
        2.424048900604248,
        8.211176872253418
      ],
      "min": [
        0.5797195434570313,
        2.3940491676330566,
        8.161176681518555
      ],
      "type": "VEC3"
    },
    {
      "bufferView": 2,
      "byteOffset": 26664,
      "componentType": 5126,
      "count": 100,
      "max": [
        1.0,
        0.9778122305870056,
        1.0
      ],
      "min": [
        -1.0,
        -0.9778110384941101,
        -1.0
      ],
      "type": "VEC3"
    },
    {
      "bufferView": 1,
      "byteOffset": 16976,
      "componentType": 5126,
      "count": 100,
      "max": [
        0.6352427005767822,
        1.826453685760498
      ],
      "min": [
        -0.2936915159225464,
        -0.8783776760101318
      ],
      "type": "VEC2"
    },
    {
      "bufferView": 1,
      "byteOffset": 17776,
      "componentType": 5126,
      "count": 100,
      "max": [
        0.6352427005767822,
        1.826453685760498
      ],
      "min": [
        -0.2936915159225464,
        -0.8783776760101318
      ],
      "type": "VEC2"
    },
    {
      "bufferView": 0,
      "byteOffset": 8652,
      "componentType": 5125,
      "count": 168,
      "type": "SCALAR"
    },
    {
      "bufferView": 2,
      "byteOffset": 27864,
      "componentType": 5126,
      "count": 100,
      "max": [
        0.9797191619873047,
        2.424048900604248,
        8.211176872253418
      ],
      "min": [
        0.5797195434570313,
        2.3940491676330566,
        8.161176681518555
      ],
      "type": "VEC3"
    },
    {
      "bufferView": 2,
      "byteOffset": 29064,
      "componentType": 5126,
      "count": 100,
      "max": [
        1.0,
        0.9778122305870056,
        1.0
      ],
      "min": [
        -1.0,
        -0.9778110384941101,
        -1.0
      ],
      "type": "VEC3"
    },
    {
      "bufferView": 1,
      "byteOffset": 18576,
      "componentType": 5126,
      "count": 100,
      "max": [
        0.6352427005767822,
        1.826453685760498
      ],
      "min": [
        -0.2936915159225464,
        -0.8783776760101318
      ],
      "type": "VEC2"
    },
    {
      "bufferView": 1,
      "byteOffset": 19376,
      "componentType": 5126,
      "count": 100,
      "max": [
        0.6352427005767822,
        1.826453685760498
      ],
      "min": [
        -0.2936915159225464,
        -0.8783776760101318
      ],
      "type": "VEC2"
    },
    {
      "bufferView": 0,
      "byteOffset": 9324,
      "componentType": 5125,
      "count": 168,
      "type": "SCALAR"
    },
    {
      "bufferView": 2,
      "byteOffset": 30264,
      "componentType": 5126,
      "count": 100,
      "max": [
        0.9797191619873047,
        2.424048900604248,
        8.211176872253418
      ],
      "min": [
        0.5797195434570313,
        2.3940491676330566,
        8.161176681518555
      ],
      "type": "VEC3"
    },
    {
      "bufferView": 2,
      "byteOffset": 31464,
      "componentType": 5126,
      "count": 100,
      "max": [
        1.0,
        0.9778122305870056,
        1.0
      ],
      "min": [
        -1.0,
        -0.9778110384941101,
        -1.0
      ],
      "type": "VEC3"
    },
    {
      "bufferView": 1,
      "byteOffset": 20176,
      "componentType": 5126,
      "count": 100,
      "max": [
        0.6352427005767822,
        1.826453685760498
      ],
      "min": [
        -0.2936915159225464,
        -0.8783776760101318
      ],
      "type": "VEC2"
    },
    {
      "bufferView": 1,
      "byteOffset": 20976,
      "componentType": 5126,
      "count": 100,
      "max": [
        0.6352427005767822,
        1.826453685760498
      ],
      "min": [
        -0.2936915159225464,
        -0.8783776760101318
      ],
      "type": "VEC2"
    },
    {
      "bufferView": 0,
      "byteOffset": 9996,
      "componentType": 5125,
      "count": 168,
      "type": "SCALAR"
    }
  ],
  "asset": {
    "extras": {
      "author": "sam (https://sketchfab.com/pigeons)",
      "license": "CC-BY-4.0 (http://creativecommons.org/licenses/by/4.0/)",
      "source": "https://sketchfab.com/3d-models/chest-of-drawers-42623727f05c4fbf98e3f36de75ade00",
      "title": "chest of drawers"
    },
    "generator": "Sketchfab-12.78.0",
    "version": "2.0"
  },
  "bufferViews": [
    {
      "buffer": 0,
      "byteLength": 10668,
      "name": "floatBufferViews",
      "target": 34963
    },
    {
      "buffer": 0,
      "byteLength": 21776,
      "byteOffset": 10668,
      "byteStride": 8,
      "name": "floatBufferViews",
      "target": 34962
    },
    {
      "buffer": 0,
      "byteLength": 32664,
      "byteOffset": 32444,
      "byteStride": 12,
      "name": "floatBufferViews",
      "target": 34962
    }
  ],
  "buffers": [
    {
      "byteLength": 65108,
      "uri": "scene.bin"
    }
  ],
  "images": [
    {
      "uri": "textures/black_wood_baseColor.png"
    },
    {
      "uri": "textures/glossy_drawers_baseColor.png"
    },
    {
      "uri": "textures/steel_handle_baseColor.png"
    }
  ],
  "materials": [
    {
      "doubleSided": true,
      "name": "black_wood",
      "pbrMetallicRoughness": {
        "baseColorFactor": [
          0.27531784105211315,
          0.27531784105211315,
          0.27531784105211315,
          1.0
        ],
        "baseColorTexture": {
          "index": 0
        }
      }
    },
    {
      "doubleSided": true,
      "name": "glossy_drawers",
      "pbrMetallicRoughness": {
        "baseColorTexture": {
          "index": 1
        },
        "metallicFactor": 0.9258963695286042,
        "roughnessFactor": 0.0
      }
    },
    {
      "doubleSided": true,
      "name": "steel_handle",
      "pbrMetallicRoughness": {
        "baseColorTexture": {
          "index": 2
        },
        "roughnessFactor": 0.6091588688445847
      }
    }
  ],
  "meshes": [
    {
      "name": "polySurface63_black_wood_0",
      "primitives": [
        {
          "attributes": {
            "NORMAL": 1,
            "POSITION": 0,
            "TEXCOORD_0": 2,
            "TEXCOORD_1": 3
          },
          "indices": 4,
          "material": 0,
          "mode": 4
        }
      ]
    },
    {
      "name": "polySurface63_glossy_drawers_0",
      "primitives": [
        {
          "attributes": {
            "NORMAL": 6,
            "POSITION": 5,
            "TEXCOORD_0": 7,
            "TEXCOORD_1": 8
          },
          "indices": 9,
          "material": 1,
          "mode": 4
        }
      ]
    },
    {
      "name": "polySurface67_steel_handle_0",
      "primitives": [
        {
          "attributes": {
            "NORMAL": 11,
            "POSITION": 10,
            "TEXCOORD_0": 12,
            "TEXCOORD_1": 13
          },
          "indices": 14,
          "material": 2,
          "mode": 4
        }
      ]
    },
    {
      "name": "polySurface68_steel_handle_0",
      "primitives": [
        {
          "attributes": {
            "NORMAL": 16,
            "POSITION": 15,
            "TEXCOORD_0": 17,
            "TEXCOORD_1": 18
          },
          "indices": 19,
          "material": 2,
          "mode": 4
        }
      ]
    },
    {
      "name": "polySurface69_steel_handle_0",
      "primitives": [
        {
          "attributes": {
            "NORMAL": 21,
            "POSITION": 20,
            "TEXCOORD_0": 22,
            "TEXCOORD_1": 23
          },
          "indices": 24,
          "material": 2,
          "mode": 4
        }
      ]
    },
    {
      "name": "polySurface70_steel_handle_0",
      "primitives": [
        {
          "attributes": {
            "NORMAL": 26,
            "POSITION": 25,
            "TEXCOORD_0": 27,
            "TEXCOORD_1": 28
          },
          "indices": 29,
          "material": 2,
          "mode": 4
        }
      ]
    },
    {
      "name": "polySurface71_steel_handle_0",
      "primitives": [
        {
          "attributes": {
            "NORMAL": 31,
            "POSITION": 30,
            "TEXCOORD_0": 32,
            "TEXCOORD_1": 33
          },
          "indices": 34,
          "material": 2,
          "mode": 4
        }
      ]
    },
    {
      "name": "polySurface72_steel_handle_0",
      "primitives": [
        {
          "attributes": {
            "NORMAL": 36,
            "POSITION": 35,
            "TEXCOORD_0": 37,
            "TEXCOORD_1": 38
          },
          "indices": 39,
          "material": 2,
          "mode": 4
        }
      ]
    },
    {
      "name": "polySurface73_steel_handle_0",
      "primitives": [
        {
          "attributes": {
            "NORMAL": 41,
            "POSITION": 40,
            "TEXCOORD_0": 42,
            "TEXCOORD_1": 43
          },
          "indices": 44,
          "material": 2,
          "mode": 4
        }
      ]
    },
    {
      "name": "polySurface74_steel_handle_0",
      "primitives": [
        {
          "attributes": {
            "NORMAL": 46,
            "POSITION": 45,
            "TEXCOORD_0": 47,
            "TEXCOORD_1": 48
          },
          "indices": 49,
          "material": 2,
          "mode": 4
        }
      ]
    }
  ],
  "nodes": [
    {
      "children": [
        1
      ],
      "matrix": [
        -1.0,
        -6.290011496532519e-32,
        2.832769343193999e-16,
        0.0,
        2.832769343193999e-16,
        -2.220446049250313e-16,
        1.0,
        0.0,
        0.0,
        1.0,
        2.220446049250313e-16,
        0.0,
        0.13204021751880646,
        -1.847754728831973e-17,
        0.08321547508239746,
        1.0
      ],
      "name": "Sketchfab_model"
    },
    {
      "children": [
        2
      ],
      "matrix": [
        0.009999999776482582,
        0.0,
        0.0,
        0.0,
        0.0,
        0.0,
        0.009999999776482582,
        0.0,
        0.0,
        -0.009999999776482582,
        0.0,
        0.0,
        0.0,
        0.0,
        0.0,
        1.0
      ],
      "name": "33eacc2557c645f896306fdbc494c0fe.fbx"
    },
    {
      "children": [
        3
      ],
      "name": "RootNode"
    },
    {
      "children": [
        4,
        7,
        9,
        11,
        13,
        15,
        17,
        19,
        21
      ],
      "matrix": [
        1.0,
        0.0,
        0.0,
        0.0,
        0.0,
        1.0,
        0.0,
        0.0,
        0.0,
        0.0,
        1.0,
        0.0,
        6.382296085357666,
        -0.0007271996582858264,
        -4.760242938995361,
        1.0
      ],
      "name": "polySurface62"
    },
    {
      "children": [
        5,
        6
      ],
      "name": "polySurface63"
    },
    {
      "mesh": 0,
      "name": "polySurface63_black_wood_0"
    },
    {
      "mesh": 1,
      "name": "polySurface63_glossy_drawers_0"
    },
    {
      "children": [
        8
      ],
      "matrix": [
        1.0,
        0.0,
        0.0,
        0.0,
        0.0,
        1.0,
        0.0,
        0.0,
        0.0,
        0.0,
        1.0,
        0.0,
        -0.008245669305324554,
        0.004174178931862116,
        0.0,
        1.0
      ],
      "name": "polySurface67"
    },
    {
      "mesh": 2,
      "name": "polySurface67_steel_handle_0"
    },
    {
      "children": [
        10
      ],
      "matrix": [
        1.0,
        0.0,
        0.0,
        0.0,
        0.0,
        1.0,
        0.0,
        0.0,
        0.0,
        0.0,
        1.0,
        0.0,
        -0.008245669305324554,
        -0.5626403093338013,
        0.0,
        1.0
      ],
      "name": "polySurface68"
    },
    {
      "mesh": 3,
      "name": "polySurface68_steel_handle_0"
    },
    {
      "children": [
        12
      ],
      "matrix": [
        1.0,
        0.0,
        0.0,
        0.0,
        0.0,
        1.0,
        0.0,
        0.0,
        0.0,
        0.0,
        1.0,
        0.0,
        -0.008245669305324554,
        -1.1449089050292969,
        0.0,
        1.0
      ],
      "name": "polySurface69"
    },
    {
      "mesh": 4,
      "name": "polySurface69_steel_handle_0"
    },
    {
      "children": [
        14
      ],
      "matrix": [
        1.0,
        0.0,
        0.0,
        0.0,
        0.0,
        1.0,
        0.0,
        0.0,
        0.0,
        0.0,
        1.0,
        0.0,
        -0.008245669305324554,
        -1.733977198600769,
        0.0,
        1.0
      ],
      "name": "polySurface70"
    },
    {
      "mesh": 5,
      "name": "polySurface70_steel_handle_0"
    },
    {
      "children": [
        16
      ],
      "matrix": [
        1.0,
        0.0,
        0.0,
        0.0,
        0.0,
        1.0,
        0.0,
        0.0,
        0.0,
        0.0,
        1.0,
        0.0,
        -2.0171680450439453,
        -1.733977198600769,
        0.0,
        1.0
      ],
      "name": "polySurface71"
    },
    {
      "mesh": 6,
      "name": "polySurface71_steel_handle_0"
    },
    {
      "children": [
        18
      ],
      "matrix": [
        1.0,
        0.0,
        0.0,
        0.0,
        0.0,
        1.0,
        0.0,
        0.0,
        0.0,
        0.0,
        1.0,
        0.0,
        -2.0171680450439453,
        -1.1429650783538818,
        0.0,
        1.0
      ],
      "name": "polySurface72"
    },
    {
      "mesh": 7,
      "name": "polySurface72_steel_handle_0"
    },
    {
      "children": [
        20
      ],
      "matrix": [
        1.0,
        0.0,
        0.0,
        0.0,
        0.0,
        1.0,
        0.0,
        0.0,
        0.0,
        0.0,
        1.0,
        0.0,
        -2.0171680450439453,
        -0.5667943954467773,
        0.0,
        1.0
      ],
      "name": "polySurface73"
    },
    {
      "mesh": 8,
      "name": "polySurface73_steel_handle_0"
    },
    {
      "children": [
        22
      ],
      "matrix": [
        1.0,
        0.0,
        0.0,
        0.0,
        0.0,
        1.0,
        0.0,
        0.0,
        0.0,
        0.0,
        1.0,
        0.0,
        -2.0171680450439453,
        0.006886087823659182,
        0.0,
        1.0
      ],
      "name": "polySurface74"
    },
    {
      "mesh": 9,
      "name": "polySurface74_steel_handle_0"
    }
  ],
  "samplers": [
    {
      "magFilter": 9729,
      "minFilter": 9987,
      "wrapS": 10497,
      "wrapT": 10497
    }
  ],
  "scene": 0,
  "scenes": [
    {
      "name": "Sketchfab_Scene",
      "nodes": [
        0
      ]
    }
  ],
  "textures": [
    {
      "sampler": 0,
      "source": 0
    },
    {
      "sampler": 0,
      "source": 1
    },
    {
      "sampler": 0,
      "source": 2
    }
  ]
}
