{
  "accessors": [
    {
      "bufferView": 2,
      "componentType": 5126,
      "count": 208,
      "max": [
        2.67582106590271,
        0.14433200657367706,
        5.225036144256592
      ],
      "min": [
        -2.8259129524230957,
        -3.004699945449829,
        5.0172600746154785
      ],
      "type": "VEC3"
    },
    {
      "bufferView": 2,
      "byteOffset": 2496,
      "componentType": 5126,
      "count": 208,
      "max": [
        0.9999831914901733,
        0.9291441440582275,
        1.0
      ],
      "min": [
        -0.9999831914901733,
        -0.5773502588272095,
        -1.0
      ],
      "type": "VEC3"
    },
    {
      "bufferView": 1,
      "componentType": 5126,
      "count": 208,
      "max": [
        0.5824059844017029,
        0.6413130164146423
      ],
      "min": [
        0.426472008228302,
        0.4851120114326477
      ],
      "type": "VEC2"
    },
    {
      "bufferView": 0,
      "componentType": 5125,
      "count": 408,
      "type": "SCALAR"
    },
    {
      "bufferView": 2,
      "byteOffset": 4992,
      "componentType": 5126,
      "count": 216,
      "max": [
        1.8420079946517944,
        0.4587570130825043,
        5.1395158767700195
      ],
      "min": [
        -2.477710008621216,
        -4.321331977844238,
        4.631409168243408
      ],
      "type": "VEC3"
    },
    {
      "bufferView": 2,
      "byteOffset": 7584,
      "componentType": 5126,
      "count": 216,
      "max": [
        0.9971910715103149,
        1.0,
        0.9211169481277466
      ],
      "min": [
        -0.9971910715103149,
        -1.0,
        -0.9211169481277466
      ],
      "type": "VEC3"
    },
    {
      "bufferView": 1,
      "byteOffset": 1664,
      "componentType": 5126,
      "count": 216,
      "max": [
        0.9766899943351746,
        0.5903570055961609
      ],
      "min": [
        0.5772870182991028,
        0.261227011680603
      ],
      "type": "VEC2"
    },
    {
      "bufferView": 0,
      "byteOffset": 1632,
      "componentType": 5125,
      "count": 576,
      "type": "SCALAR"
    },
    {
      "bufferView": 2,
      "byteOffset": 10176,
      "componentType": 5126,
      "count": 581,
      "max": [
        1.059128999710083,
        2.004909038543701,
        11.954682350158691
      ],
      "min": [
        -1.244837999343872,
        -4.868316173553467,
        4.963913917541504
      ],
      "type": "VEC3"
    },
    {
      "bufferView": 2,
      "byteOffset": 17148,
      "componentType": 5126,
      "count": 581,
      "max": [
        0.9680688977241516,
        0.979933500289917,
        0.9971305727958679
      ],
      "min": [
        -0.9256840944290161,
        -0.8930768370628357,
        -0.9620686769485474
      ],
      "type": "VEC3"
    },
    {
      "bufferView": 1,
      "byteOffset": 3392,
      "componentType": 5126,
      "count": 581,
      "max": [
        0.9799180030822754,
        0.5711820125579834
      ],
      "min": [
        0.6069049835205078,
        0.030462000519037247
      ],
      "type": "VEC2"
    },
    {
      "bufferView": 0,
      "byteOffset": 3936,
      "componentType": 5125,
      "count": 1548,
      "type": "SCALAR"
    },
    {
      "bufferView": 2,
      "byteOffset": 24120,
      "componentType": 5126,
      "count": 2770,
      "max": [
        3.1897330284118652,
        1.9401969909667969,
        14.23074722290039
      ],
      "min": [
        -3.3398239612579346,
        -4.689805030822754,
        4.229225158691406
      ],
      "type": "VEC3"
    },
    {
      "bufferView": 2,
      "byteOffset": 57360,
      "componentType": 5126,
      "count": 2770,
      "max": [
        0.9980460405349731,
        0.9999680519104004,
        0.9998474717140198
      ],
      "min": [
        -0.9980460405349731,
        -0.9997355341911316,
        -0.999924898147583
      ],
      "type": "VEC3"
    },
    {
      "bufferView": 1,
      "byteOffset": 8040,
      "componentType": 5126,
      "count": 2770,
      "max": [
        0.9804099798202515,
        0.9782620072364807
      ],
      "min": [
        0.04223499819636345,
        0.03547099977731705
      ],
      "type": "VEC2"
    },
    {
      "bufferView": 0,
      "byteOffset": 10128,
      "componentType": 5125,
      "count": 9396,
      "type": "SCALAR"
    },
    {
      "bufferView": 2,
      "byteOffset": 90600,
      "componentType": 5126,
      "count": 3684,
      "max": [
        3.879462957382202,
        3.732008934020996,
        12.57198715209961
      ],
      "min": [
        -4.021667003631592,
        -3.8179049491882324,
        0.002032000105828047
      ],
      "type": "VEC3"
    },
    {
      "bufferView": 2,
      "byteOffset": 134808,
      "componentType": 5126,
      "count": 3684,
      "max": [
        0.9999831914901733,
        0.9999990463256836,
        1.0
      ],
      "min": [
        -0.9999194145202637,
        -0.9999990463256836,
        -1.0
      ],
      "type": "VEC3"
    },
    {
      "bufferView": 1,
      "byteOffset": 30200,
      "componentType": 5126,
      "count": 3684,
      "max": [
        0.981203019618988,
        0.5848299860954285
      ],
      "min": [
        0.36692699790000916,
        0.01657100021839142
      ],
      "type": "VEC2"
    },
    {
      "bufferView": 0,
      "byteOffset": 47712,
      "componentType": 5125,
      "count": 8664,
      "type": "SCALAR"
    },
    {
      "bufferView": 2,
      "byteOffset": 179016,
      "componentType": 5126,
      "count": 720,
      "max": [
        1.0614629983901978,
        2.021859884262085,
        11.879332542419434
      ],
      "min": [
        -1.2514419555664063,
        1.8928749561309814,
        10.516439437866211
      ],
      "type": "VEC3"
    },
    {
      "bufferView": 2,
      "byteOffset": 187656,
      "componentType": 5126,
      "count": 720,
      "max": [
        0.72833251953125,
        0.9560826420783997,
        0.8968432545661926
      ],
      "min": [
        -0.7299880385398865,
        -0.9560826420783997,
        -0.8960974216461182
      ],
      "type": "VEC3"
    },
    {
      "bufferView": 1,
      "byteOffset": 59672,
      "componentType": 5126,
      "count": 720,
      "max": [
        0.7863879799842834,
        0.5508630275726318
      ],
      "min": [
        0.27338701486587524,
        0.311955988407135
      ],
      "type": "VEC2"
    },
    {
      "bufferView": 0,
      "byteOffset": 82368,
      "componentType": 5125,
      "count": 1584,
      "type": "SCALAR"
    }
  ],
  "asset": {
    "extras": {
      "author": "vashishthadubey (https://sketchfab.com/vashishthadubey)",
      "license": "CC-BY-4.0 (http://creativecommons.org/licenses/by/4.0/)",
      "source": "https://sketchfab.com/3d-models/gaming-chair-7f0c2f402d90406dacfb0cdf90dbe0f5",
      "title": "Gaming Chair"
    },
    "generator": "Sketchfab-12.68.0",
    "version": "2.0"
  },
  "bufferViews": [
    {
      "buffer": 0,
      "byteLength": 88704,
      "name": "floatBufferViews",
      "target": 34963
    },
    {
      "buffer": 0,
      "byteLength": 65432,
      "byteOffset": 88704,
      "byteStride": 8,
      "name": "floatBufferViews",
      "target": 34962
    },
    {
      "buffer": 0,
      "byteLength": 196296,
      "byteOffset": 154136,
      "byteStride": 12,
      "name": "floatBufferViews",
      "target": 34962
    }
  ],
  "buffers": [
    {
      "byteLength": 350432,
      "uri": "scene.bin"
    }
  ],
  "images": [
    {
      "uri": "textures/chair_material_baseColor.png"
    }
  ],
  "materials": [
    {
      "doubleSided": true,
      "name": "white_metal",
      "pbrMetallicRoughness": {
        "baseColorFactor": [
          0.4881239017687224,
          0.4881239017687224,
          0.4881239017687224,
          1.0
        ],
        "metallicFactor": 0.6644489235053415,
        "roughnessFactor": 0.42124199697207376
      }
    },
    {
      "doubleSided": true,
      "name": "black_cloth",
      "pbrMetallicRoughness": {
        "baseColorFactor": [
          0.03819108768217719,
          0.03819108768217719,
          0.03819108768217719,
          1.0
        ],
        "metallicFactor": 0.0,
        "roughnessFactor": 0.8650946378952873
      }
    },
    {
      "doubleSided": true,
      "name": "black_metal",
      "pbrMetallicRoughness": {
        "baseColorFactor": [
          0.03819108768217719,
          0.03819108768217719,
          0.03819108768217719,
          1.0
        ],
        "metallicFactor": 0.7799722136086435,
        "roughnessFactor": 0.555005806565371
      }
    },
    {
      "doubleSided": true,
      "name": "chair_material",
      "pbrMetallicRoughness": {
        "baseColorTexture": {
          "index": 0
        },
        "metallicFactor": 0.1780350704388061,
        "roughnessFactor": 0.5975670187086929
      }
    },
    {
      "doubleSided": true,
      "name": "plastic",
      "pbrMetallicRoughness": {
        "baseColorTexture": {
          "index": 0
        },
        "metallicFactor": 0.23275662890879134,
        "roughnessFactor": 0.3239592263587667
      }
    },
    {
      "doubleSided": true,
      "name": "plastic_buckle",
      "pbrMetallicRoughness": {
        "baseColorFactor": [
          0.0321109145188455,
          0.0321109145188455,
          0.0321109145188455,
          1.0
        ],
        "metallicFactor": 0.5246049407487126,
        "roughnessFactor": 0.7556515209553168
      }
    }
  ],
  "meshes": [
    {
      "name": "Object_0",
      "primitives": [
        {
          "attributes": {
            "NORMAL": 1,
            "POSITION": 0,
            "TEXCOORD_0": 2
          },
          "indices": 3,
          "material": 2,
          "mode": 4
        }
      ]
    },
    {
      "name": "Object_1",
      "primitives": [
        {
          "attributes": {
            "NORMAL": 5,
            "POSITION": 4,
            "TEXCOORD_0": 6
          },
          "indices": 7,
          "material": 0,
          "mode": 4
        }
      ]
    },
    {
      "name": "Object_2",
      "primitives": [
        {
          "attributes": {
            "NORMAL": 9,
            "POSITION": 8,
            "TEXCOORD_0": 10
          },
          "indices": 11,
          "material": 1,
          "mode": 4
        }
      ]
    },
    {
      "name": "Object_3",
      "primitives": [
        {
          "attributes": {
            "NORMAL": 13,
            "POSITION": 12,
            "TEXCOORD_0": 14
          },
          "indices": 15,
          "material": 3,
          "mode": 4
        }
      ]
    },
    {
      "name": "Object_4",
      "primitives": [
        {
          "attributes": {
            "NORMAL": 17,
            "POSITION": 16,
            "TEXCOORD_0": 18
          },
          "indices": 19,
          "material": 4,
          "mode": 4
        }
      ]
    },
    {
      "name": "Object_5",
      "primitives": [
        {
          "attributes": {
            "NORMAL": 21,
            "POSITION": 20,
            "TEXCOORD_0": 22
          },
          "indices": 23,
          "material": 5,
          "mode": 4
        }
      ]
    }
  ],
  "nodes": [
    {
      "children": [
        1
      ],
      "matrix": [
        1.0,
        0.0,
        0.0,
        0.0,
        0.0,
        2.220446049250313e-16,
        -1.0,
        0.0,
        0.0,
        1.0,
        2.220446049250313e-16,
        0.0,
        0.0,
        0.0,
        0.0,
        1.0
      ],
      "name": "Sketchfab_model"
    },
    {
      "children": [
        2,
        3,
        4,
        5,
        6,
        7
      ],
      "name": "Gaming chair.obj.cleaner.materialmerger.gles"
    },
    {
      "mesh": 0,
      "name": "Object_2"
    },
    {
      "mesh": 1,
      "name": "Object_3"
    },
    {
      "mesh": 2,
      "name": "Object_4"
    },
    {
      "mesh": 3,
      "name": "Object_5"
    },
    {
      "mesh": 4,
      "name": "Object_6"
    },
    {
      "mesh": 5,
      "name": "Object_7"
    }
  ],
  "samplers": [
    {
      "magFilter": 9729,
      "minFilter": 9987,
      "wrapS": 10497,
      "wrapT": 10497
    }
  ],
  "scene": 0,
  "scenes": [
    {
      "name": "Sketchfab_Scene",
      "nodes": [
        0
      ]
    }
  ],
  "textures": [
    {
      "sampler": 0,
      "source": 0
    }
  ]
}
