{
  "accessors": [
    {
      "bufferView": 2,
      "componentType": 5126,
      "count": 273,
      "max": [
        1.0219449996948242,
        0.47224000096321106,
        0.03954000025987625
      ],
      "min": [
        0.7843790054321289,
        -0.01154599990695715,
        -0.036490000784397125
      ],
      "type": "VEC3"
    },
    {
      "bufferView": 2,
      "byteOffset": 3276,
      "componentType": 5126,
      "count": 273,
      "max": [
        0.992530345916748,
        0.5796660780906677,
        0.9999989867210388
      ],
      "min": [
        -0.9922007322311401,
        -0.5700188279151917,
        -0.9999989867210388
      ],
      "type": "VEC3"
    },
    {
      "bufferView": 1,
      "componentType": 5126,
      "count": 273,
      "max": [
        0.046906232833862305,
        0.062190473079681396
      ],
      "min": [
        0.02603358030319214,
        0.052964113652706146
      ],
      "type": "VEC2"
    },
    {
      "bufferView": 0,
      "componentType": 5125,
      "count": 1440,
      "type": "SCALAR"
    },
    {
      "bufferView": 2,
      "byteOffset": 6552,
      "componentType": 5126,
      "count": 1001,
      "max": [
        1.0265769958496094,
        2.6905670166015625,
        0.0415630005300045
      ],
      "min": [
        -0.43215298652648926,
        -0.03962799906730652,
        -0.050071001052856445
      ],
      "type": "VEC3"
    },
    {
      "bufferView": 2,
      "byteOffset": 18564,
      "componentType": 5126,
      "count": 1001,
      "max": [
        0.9995350241661072,
        0.9943771362304688,
        0.999999463558197
      ],
      "min": [
        -0.9990453720092773,
        -0.9951674938201904,
        -0.9999930262565613
      ],
      "type": "VEC3"
    },
    {
      "bufferView": 1,
      "byteOffset": 2184,
      "componentType": 5126,
      "count": 1001,
      "max": [
        0.16494771838188171,
        0.25234121084213257
      ],
      "min": [
        0.1539609134197235,
        0.04236261546611786
      ],
      "type": "VEC2"
    },
    {
      "bufferView": 0,
      "byteOffset": 5760,
      "componentType": 5125,
      "count": 5442,
      "type": "SCALAR"
    },
    {
      "bufferView": 2,
      "byteOffset": 30576,
      "componentType": 5126,
      "count": 2130,
      "max": [
        -0.10505175590515137,
        2.6208932399749756,
        0.019550085067749023
      ],
      "min": [
        -0.23192626237869263,
        2.551939010620117,
        -0.02549988031387329
      ],
      "type": "VEC3"
    },
    {
      "bufferView": 2,
      "byteOffset": 56136,
      "componentType": 5126,
      "count": 2130,
      "max": [
        1.0,
        0.9968557357788086,
        1.0
      ],
      "min": [
        -1.0,
        -1.0,
        -1.0
      ],
      "type": "VEC3"
    },
    {
      "bufferView": 1,
      "byteOffset": 10192,
      "componentType": 5126,
      "count": 2130,
      "max": [
        0.9921875,
        0.023085936903953552
      ],
      "min": [
        0.0078125,
        0.0078125
      ],
      "type": "VEC2"
    },
    {
      "bufferView": 0,
      "byteOffset": 27528,
      "componentType": 5125,
      "count": 10410,
      "type": "SCALAR"
    },
    {
      "bufferView": 2,
      "byteOffset": 81696,
      "componentType": 5126,
      "count": 570,
      "max": [
        -0.1559540033340454,
        2.014040946960449,
        0.7962020039558411
      ],
      "min": [
        -0.6345930099487305,
        0.47383901476860046,
        -0.7960439920425415
      ],
      "type": "VEC3"
    },
    {
      "bufferView": 2,
      "byteOffset": 88536,
      "componentType": 5126,
      "count": 570,
      "max": [
        0.9997844696044922,
        0.9986428618431091,
        0.9974618554115295
      ],
      "min": [
        -0.9832347631454468,
        -0.9880367517471313,
        -0.9975628852844238
      ],
      "type": "VEC3"
    },
    {
      "bufferView": 1,
      "byteOffset": 27232,
      "componentType": 5126,
      "count": 570,
      "max": [
        0.2647284269332886,
        0.2063809037208557
      ],
      "min": [
        0.25531578063964844,
        0.0078125
      ],
      "type": "VEC2"
    },
    {
      "bufferView": 0,
      "byteOffset": 69168,
      "componentType": 5125,
      "count": 3024,
      "type": "SCALAR"
    },
    {
      "bufferView": 2,
      "byteOffset": 95376,
      "componentType": 5126,
      "count": 682,
      "max": [
        1.0465619564056396,
        0.04665600135922432,
        1.0452680587768555
      ],
      "min": [
        -1.046502947807312,
        -0.04663800075650215,
        -1.0462690591812134
      ],
      "type": "VEC3"
    },
    {
      "bufferView": 2,
      "byteOffset": 103560,
      "componentType": 5126,
      "count": 682,
      "max": [
        0.9996230006217957,
        0.9579907655715942,
        0.9999991059303284
      ],
      "min": [
        -0.9996217489242554,
        -0.9571830034255981,
        -0.9999897480010986
      ],
      "type": "VEC3"
    },
    {
      "bufferView": 1,
      "byteOffset": 31792,
      "componentType": 5126,
      "count": 682,
      "max": [
        0.15082436800003052,
        0.2675046920776367
      ],
      "min": [
        0.13839705288410187,
        0.0078125
      ],
      "type": "VEC2"
    },
    {
      "bufferView": 0,
      "byteOffset": 81264,
      "componentType": 5125,
      "count": 3660,
      "type": "SCALAR"
    },
    {
      "bufferView": 2,
      "byteOffset": 111744,
      "componentType": 5126,
      "count": 5598,
      "max": [
        -0.13685500621795654,
        2.5974810123443604,
        0.06044299900531769
      ],
      "min": [
        -0.19722799956798553,
        1.999060034751892,
        -0.0604420006275177
      ],
      "type": "VEC3"
    },
    {
      "bufferView": 2,
      "byteOffset": 178920,
      "componentType": 5126,
      "count": 5598,
      "max": [
        0.9999326467514038,
        1.0,
        0.9999907612800598
      ],
      "min": [
        -0.9999327659606934,
        -1.0,
        -0.9999907612800598
      ],
      "type": "VEC3"
    },
    {
      "bufferView": 1,
      "byteOffset": 37248,
      "componentType": 5126,
      "count": 5598,
      "max": [
        0.246853306889534,
        0.2008628249168396
      ],
      "min": [
        0.0078125,
        0.07133984565734863
      ],
      "type": "VEC2"
    },
    {
      "bufferView": 0,
      "byteOffset": 95904,
      "componentType": 5125,
      "count": 30852,
      "type": "SCALAR"
    },
    {
      "bufferView": 2,
      "byteOffset": 246096,
      "componentType": 5126,
      "count": 540,
      "max": [
        0.8524690270423889,
        0.04147399961948395,
        0.6214669942855835
      ],
      "min": [
        0.46674200892448425,
        -0.04300399869680405,
        -0.6182810068130493
      ],
      "type": "VEC3"
    },
    {
      "bufferView": 2,
      "byteOffset": 252576,
      "componentType": 5126,
      "count": 540,
      "max": [
        0.9881606698036194,
        0.9999480247497559,
        0.7715812921524048
      ],
      "min": [
        -0.997868537902832,
        -0.9936761260032654,
        -0.7694202065467834
      ],
      "type": "VEC3"
    },
    {
      "bufferView": 1,
      "byteOffset": 82032,
      "componentType": 5126,
      "count": 540,
      "max": [
        0.2255825400352478,
        0.12066608667373657
      ],
      "min": [
        0.16800636053085327,
        0.10975329577922821
      ],
      "type": "VEC2"
    },
    {
      "bufferView": 0,
      "byteOffset": 219312,
      "componentType": 5125,
      "count": 2958,
      "type": "SCALAR"
    },
    {
      "bufferView": 2,
      "byteOffset": 259056,
      "componentType": 5126,
      "count": 59669,
      "max": [
        0.3383903503417969,
        1.4791717529296875,
        0.7125244140625
      ],
      "min": [
        -0.7360610961914063,
        0.4970664978027344,
        -0.6716079711914063
      ],
      "type": "VEC3"
    },
    {
      "bufferView": 2,
      "byteOffset": 975084,
      "componentType": 5126,
      "count": 59669,
      "max": [
        0.9999375343322754,
        0.9999837279319763,
        0.9999791979789734
      ],
      "min": [
        -0.9999726414680481,
        -0.9999976754188538,
        -0.9999890327453613
      ],
      "type": "VEC3"
    },
    {
      "bufferView": 1,
      "byteOffset": 86352,
      "componentType": 5126,
      "count": 59669,
      "max": [
        0.2484070062637329,
        0.19568949937820435
      ],
      "min": [
        0.0078125,
        0.09190921485424042
      ],
      "type": "VEC2"
    },
    {
      "bufferView": 0,
      "byteOffset": 231144,
      "componentType": 5125,
      "count": 341364,
      "type": "SCALAR"
    },
    {
      "bufferView": 2,
      "byteOffset": 1691112,
      "componentType": 5126,
      "count": 35140,
      "max": [
        0.4792764484882355,
        1.980297327041626,
        0.7730051279067993
      ],
      "min": [
        -0.5719438791275024,
        0.46770235896110535,
        -0.7730054259300232
      ],
      "type": "VEC3"
    },
    {
      "bufferView": 2,
      "byteOffset": 2112792,
      "componentType": 5126,
      "count": 35140,
      "max": [
        0.9996885657310486,
        0.9995036721229553,
        0.9999979138374329
      ],
      "min": [
        -0.9996265769004822,
        -0.9994745850563049,
        -0.9999978542327881
      ],
      "type": "VEC3"
    },
    {
      "bufferView": 1,
      "byteOffset": 563704,
      "componentType": 5126,
      "count": 35140,
      "max": [
        0.7878602147102356,
        0.45685121417045593
      ],
      "min": [
        0.0078125,
        0.0078125
      ],
      "type": "VEC2"
    },
    {
      "bufferView": 0,
      "byteOffset": 1596600,
      "componentType": 5125,
      "count": 94872,
      "type": "SCALAR"
    }
  ],
  "asset": {
    "extras": {
      "author": "a.shevchuk (https://sketchfab.com/alex.shevchuk)",
      "license": "CC-BY-4.0 (http://creativecommons.org/licenses/by/4.0/)",
      "source": "https://sketchfab.com/3d-models/basket-swing-chair-92463f2b44624180a4ed8488ce08eb83",
      "title": "Basket Swing Chair"
    },
    "generator": "Sketchfab-12.66.0",
    "version": "2.0"
  },
  "bufferViews": [
    {
      "buffer": 0,
      "byteLength": 1976088,
      "name": "floatBufferViews",
      "target": 34963
    },
    {
      "buffer": 0,
      "byteLength": 844824,
      "byteOffset": 1976088,
      "byteStride": 8,
      "name": "floatBufferViews",
      "target": 34962
    },
    {
      "buffer": 0,
      "byteLength": 2534472,
      "byteOffset": 2820912,
      "byteStride": 12,
      "name": "floatBufferViews",
      "target": 34962
    }
  ],
  "buffers": [
    {
      "byteLength": 5355384,
      "uri": "scene.bin"
    }
  ],
  "materials": [
    {
      "doubleSided": true,
      "name": "chair1",
      "pbrMetallicRoughness": {
        "baseColorFactor": [
          0.0423114106,
          0.0423114106,
          0.0423114106,
          1.0
        ],
        "roughnessFactor": 0.5002842481
      }
    },
    {
      "doubleSided": true,
      "name": "Cushion",
      "pbrMetallicRoughness": {
        "baseColorFactor": [
          0.0048472641,
          0.1551925042,
          0.5305672653,
          1.0
        ],
        "metallicFactor": 0.0,
        "roughnessFactor": 0.5975670187
      }
    }
  ],
  "meshes": [
    {
      "name": "part1_chair1_0",
      "primitives": [
        {
          "attributes": {
            "NORMAL": 1,
            "POSITION": 0,
            "TEXCOORD_0": 2
          },
          "indices": 3,
          "material": 0,
          "mode": 4
        }
      ]
    },
    {
      "name": "part2_chair1_0",
      "primitives": [
        {
          "attributes": {
            "NORMAL": 5,
            "POSITION": 4,
            "TEXCOORD_0": 6
          },
          "indices": 7,
          "material": 0,
          "mode": 4
        }
      ]
    },
    {
      "name": "part4_chair1_0",
      "primitives": [
        {
          "attributes": {
            "NORMAL": 9,
            "POSITION": 8,
            "TEXCOORD_0": 10
          },
          "indices": 11,
          "material": 0,
          "mode": 4
        }
      ]
    },
    {
      "name": "part5_chair1_0",
      "primitives": [
        {
          "attributes": {
            "NORMAL": 13,
            "POSITION": 12,
            "TEXCOORD_0": 14
          },
          "indices": 15,
          "material": 0,
          "mode": 4
        }
      ]
    },
    {
      "name": "part6_chair1_0",
      "primitives": [
        {
          "attributes": {
            "NORMAL": 17,
            "POSITION": 16,
            "TEXCOORD_0": 18
          },
          "indices": 19,
          "material": 0,
          "mode": 4
        }
      ]
    },
    {
      "name": "part7_chair1_0",
      "primitives": [
        {
          "attributes": {
            "NORMAL": 21,
            "POSITION": 20,
            "TEXCOORD_0": 22
          },
          "indices": 23,
          "material": 0,
          "mode": 4
        }
      ]
    },
    {
      "name": "part8_chair1_0",
      "primitives": [
        {
          "attributes": {
            "NORMAL": 25,
            "POSITION": 24,
            "TEXCOORD_0": 26
          },
          "indices": 27,
          "material": 0,
          "mode": 4
        }
      ]
    },
    {
      "name": "cushion_Cushion_0",
      "primitives": [
        {
          "attributes": {
            "NORMAL": 29,
            "POSITION": 28,
            "TEXCOORD_0": 30
          },
          "indices": 31,
          "material": 1,
          "mode": 4
        }
      ]
    },
    {
      "name": "basket_chair1_0",
      "primitives": [
        {
          "attributes": {
            "NORMAL": 33,
            "POSITION": 32,
            "TEXCOORD_0": 34
          },
          "indices": 35,
          "material": 0,
          "mode": 4
        }
      ]
    }
  ],
  "nodes": [
    {
      "children": [
        1
      ],
      "matrix": [
        1.0,
        0.0,
        0.0,
        0.0,
        0.0,
        2.220446049250313e-16,
        -1.0,
        0.0,
        0.0,
        1.0,
        2.220446049250313e-16,
        0.0,
        0.0,
        0.0,
        0.0,
        1.0
      ],
      "name": "Sketchfab_model"
    },
    {
      "children": [
        2
      ],
      "matrix": [
        1.0,
        0.0,
        0.0,
        0.0,
        0.0,
        0.0,
        1.0,
        0.0,
        0.0,
        -1.0,
        0.0,
        0.0,
        0.0,
        0.0,
        0.0,
        1.0
      ],
      "name": "02350a10a0584a0c8d828a372daf4024.fbx"
    },
    {
      "children": [
        3
      ],
      "name": "RootNode"
    },
    {
      "children": [
        4,
        6,
        8,
        10,
        12,
        14,
        16,
        18,
        20
      ],
      "name": "Swing_chair"
    },
    {
      "children": [
        5
      ],
      "name": "part1"
    },
    {
      "mesh": 0,
      "name": "part1_chair1_0"
    },
    {
      "children": [
        7
      ],
      "name": "part2"
    },
    {
      "mesh": 1,
      "name": "part2_chair1_0"
    },
    {
      "children": [
        9
      ],
      "name": "part4"
    },
    {
      "mesh": 2,
      "name": "part4_chair1_0"
    },
    {
      "children": [
        11
      ],
      "name": "part5"
    },
    {
      "mesh": 3,
      "name": "part5_chair1_0"
    },
    {
      "children": [
        13
      ],
      "name": "part6"
    },
    {
      "mesh": 4,
      "name": "part6_chair1_0"
    },
    {
      "children": [
        15
      ],
      "name": "part7"
    },
    {
      "mesh": 5,
      "name": "part7_chair1_0"
    },
    {
      "children": [
        17
      ],
      "name": "part8"
    },
    {
      "mesh": 6,
      "name": "part8_chair1_0"
    },
    {
      "children": [
        19
      ],
      "name": "cushion"
    },
    {
      "mesh": 7,
      "name": "cushion_Cushion_0"
    },
    {
      "children": [
        21
      ],
      "name": "basket"
    },
    {
      "mesh": 8,
      "name": "basket_chair1_0"
    }
  ],
  "scene": 0,
  "scenes": [
    {
      "name": "Sketchfab_Scene",
      "nodes": [
        0
      ]
    }
  ]
}
