{
  "accessors": [
    {
      "bufferView": 2,
      "componentType": 5126,
      "count": 31404,
      "max": [
        8.545934677124023,
        2.447504758834839,
        1.4501739740371704
      ],
      "min": [
        7.756509304046631,
        1.7942466735839844,
        1.121698260307312
      ],
      "type": "VEC3"
    },
    {
      "bufferView": 2,
      "byteOffset": 376848,
      "componentType": 5126,
      "count": 31404,
      "max": [
        0.9999723434448242,
        1.0,
        0.9999940991401672
      ],
      "min": [
        -0.9999390840530396,
        -1.0,
        -0.9999844431877136
      ],
      "type": "VEC3"
    },
    {
      "bufferView": 1,
      "componentType": 5126,
      "count": 31404,
      "max": [
        0.9851065278053284,
        0.9972378015518188
      ],
      "min": [
        0.03053942322731018,
        0.017184283584356308
      ],
      "type": "VEC2"
    },
    {
      "bufferView": 0,
      "componentType": 5125,
      "count": 182784,
      "type": "SCALAR"
    }
  ],
  "asset": {
    "extras": {
      "author": "CHK25 (https://sketchfab.com/CHK25)",
      "license": "CC-BY-4.0 (http://creativecommons.org/licenses/by/4.0/)",
      "source": "https://sketchfab.com/3d-models/shirakami-fubuki-pillow-fubupillow-49446a47203a4737a5d6fb31f7cada89",
      "title": "Shirakami Fubuki Pillow (Fubupillow)"
    },
    "generator": "Sketchfab-12.78.0",
    "version": "2.0"
  },
  "bufferViews": [
    {
      "buffer": 0,
      "byteLength": 731136,
      "name": "floatBufferViews",
      "target": 34963
    },
    {
      "buffer": 0,
      "byteLength": 251232,
      "byteOffset": 731136,
      "byteStride": 8,
      "name": "floatBufferViews",
      "target": 34962
    },
    {
      "buffer": 0,
      "byteLength": 753696,
      "byteOffset": 982368,
      "byteStride": 12,
      "name": "floatBufferViews",
      "target": 34962
    }
  ],
  "buffers": [
    {
      "byteLength": 1736064,
      "uri": "scene.bin"
    }
  ],
  "images": [
    {
      "uri": "textures/Fubuhappy_baseColor.jpeg"
    }
  ],
  "materials": [
    {
      "doubleSided": true,
      "name": "Fubuhappy",
      "pbrMetallicRoughness": {
        "baseColorTexture": {
          "index": 0
        },
        "metallicFactor": 0.0,
        "roughnessFactor": 0.6
      }
    }
  ],
  "meshes": [
    {
      "name": "pCube135_Fubuhappy_0",
      "primitives": [
        {
          "attributes": {
            "NORMAL": 1,
            "POSITION": 0,
            "TEXCOORD_0": 2
          },
          "indices": 3,
          "material": 0,
          "mode": 4
        }
      ]
    }
  ],
  "nodes": [
    {
      "children": [
        1
      ],
      "matrix": [
        1.0,
        0.0,
        0.0,
        0.0,
        0.0,
        2.220446049250313e-16,
        -1.0,
        0.0,
        0.0,
        1.0,
        2.220446049250313e-16,
        0.0,
        0.0,
        0.0,
        0.0,
        1.0
      ],
      "name": "Sketchfab_model"
    },
    {
      "children": [
        2
      ],
      "matrix": [
        0.009999999776482582,
        0.0,
        0.0,
        0.0,
        0.0,
        0.0,
        0.009999999776482582,
        0.0,
        0.0,
        -0.009999999776482582,
        0.0,
        0.0,
        0.0,
        0.0,
        0.0,
        1.0
      ],
      "name": "Fubupillow.fbx"
    },
    {
      "children": [
        3
      ],
      "name": "RootNode"
    },
    {
      "children": [
        4
      ],
      "matrix": [
        1.0,
        0.0,
        0.0,
        0.0,
        0.0,
        1.0,
        0.0,
        0.0,
        0.0,
        0.0,
        1.2060972452163696,
        0.0,
        0.0,
        0.0,
        -0.2635784447193146,
        1.0
      ],
      "name": "pCube135"
    },
    {
      "mesh": 0,
      "name": "pCube135_Fubuhappy_0"
    }
  ],
  "samplers": [
    {
      "magFilter": 9729,
      "minFilter": 9987,
      "wrapS": 10497,
      "wrapT": 10497
    }
  ],
  "scene": 0,
  "scenes": [
    {
      "name": "Sketchfab_Scene",
      "nodes": [
        0
      ]
    }
  ],
  "textures": [
    {
      "sampler": 0,
      "source": 0
    }
  ]
}
