{
  "accessors": [
    {
      "bufferView": 2,
      "componentType": 5126,
      "count": 1082,
      "max": [
        15.570674896240234,
        4.482594013214111,
        5.572414875030518
      ],
      "min": [
        -4.091105937957764,
        -9.079023361206055,
        -18.71552276611328
      ],
      "type": "VEC3"
    },
    {
      "bufferView": 2,
      "byteOffset": 12984,
      "componentType": 5126,
      "count": 1082,
      "max": [
        0.9999902248382568,
        1.0,
        0.9999993443489075
      ],
      "min": [
        -0.9999902248382568,
        -1.0,
        -1.0
      ],
      "type": "VEC3"
    },
    {
      "bufferView": 3,
      "componentType": 5126,
      "count": 1082,
      "max": [
        0.9950950741767883,
        1.0,
        0.9990112781524658,
        1.0
      ],
      "min": [
        -0.9976971745491028,
        -0.9999715685844421,
        -0.9681200981140137,
        1.0
      ],
      "type": "VEC4"
    },
    {
      "bufferView": 1,
      "componentType": 5126,
      "count": 1082,
      "max": [
        0.9996489882469177,
        0.9755629897117615
      ],
      "min": [
        0.00035099999513477087,
        0.00035099999513477087
      ],
      "type": "VEC2"
    },
    {
      "bufferView": 0,
      "componentType": 5125,
      "count": 3264,
      "type": "SCALAR"
    },
    {
      "bufferView": 2,
      "byteOffset": 25968,
      "componentType": 5126,
      "count": 80,
      "max": [
        0.3588640093803406,
        -0.19958099722862244,
        1.2930480241775513
      ],
      "min": [
        -0.2064480036497116,
        -0.27894100546836853,
        -0.8566539883613586
      ],
      "type": "VEC3"
    },
    {
      "bufferView": 2,
      "byteOffset": 26928,
      "componentType": 5126,
      "count": 80,
      "max": [
        0.9990437626838684,
        1.0,
        0.9840261340141296
      ],
      "min": [
        -0.9915714859962463,
        -1.0,
        -0.9840269088745117
      ],
      "type": "VEC3"
    },
    {
      "bufferView": 3,
      "byteOffset": 17312,
      "componentType": 5126,
      "count": 80,
      "max": [
        0.9999605417251587,
        0.998212456703186,
        0.8109192848205566,
        1.0
      ],
      "min": [
        -0.9970306158065796,
        -1.0,
        -0.9889310598373413,
        1.0
      ],
      "type": "VEC4"
    },
    {
      "bufferView": 1,
      "byteOffset": 8656,
      "componentType": 5126,
      "count": 80,
      "max": [
        0.7251539826393127,
        1.0324440002441406
      ],
      "min": [
        0.04196599870920181,
        0.03266400098800659
      ],
      "type": "VEC2"
    },
    {
      "bufferView": 0,
      "byteOffset": 13056,
      "componentType": 5125,
      "count": 168,
      "type": "SCALAR"
    },
    {
      "bufferView": 2,
      "byteOffset": 27888,
      "componentType": 5126,
      "count": 1109,
      "max": [
        1.825057029724121,
        0.225381001830101,
        3.075360059738159
      ],
      "min": [
        -1.8336460590362549,
        -0.22537900507450104,
        1.8318220376968384
      ],
      "type": "VEC3"
    },
    {
      "bufferView": 2,
      "byteOffset": 41196,
      "componentType": 5126,
      "count": 1109,
      "max": [
        0.9806967377662659,
        0.9999973773956299,
        1.0
      ],
      "min": [
        -0.9806967377662659,
        -0.9999973773956299,
        -1.0
      ],
      "type": "VEC3"
    },
    {
      "bufferView": 3,
      "byteOffset": 18592,
      "componentType": 5126,
      "count": 1109,
      "max": [
        0.9981732368469238,
        1.0,
        0.9999974370002747,
        1.0
      ],
      "min": [
        -0.9981684684753418,
        -1.0,
        -0.9999974370002747,
        1.0
      ],
      "type": "VEC4"
    },
    {
      "bufferView": 1,
      "byteOffset": 9296,
      "componentType": 5126,
      "count": 1109,
      "max": [
        0.3117919862270355,
        0.9999330043792725
      ],
      "min": [
        6.70000008540228e-05,
        6.70000008540228e-05
      ],
      "type": "VEC2"
    },
    {
      "bufferView": 0,
      "byteOffset": 13728,
      "componentType": 5125,
      "count": 5952,
      "type": "SCALAR"
    },
    {
      "bufferView": 2,
      "byteOffset": 54504,
      "componentType": 5126,
      "count": 2122,
      "max": [
        1.928657054901123,
        0.8627309799194336,
        2.331089973449707
      ],
      "min": [
        -1.9477430582046509,
        -0.8627309799194336,
        0.8398380279541016
      ],
      "type": "VEC3"
    },
    {
      "bufferView": 2,
      "byteOffset": 79968,
      "componentType": 5126,
      "count": 2122,
      "max": [
        0.9946568608283997,
        1.0,
        0.9938945174217224
      ],
      "min": [
        -0.9964616298675537,
        -1.0,
        -0.9993301033973694
      ],
      "type": "VEC3"
    },
    {
      "bufferView": 3,
      "byteOffset": 36336,
      "componentType": 5126,
      "count": 2122,
      "max": [
        0.9999585747718811,
        1.0,
        0.9693582057952881,
        1.0
      ],
      "min": [
        -0.9970785975456238,
        -1.0,
        -0.9775243997573853,
        1.0
      ],
      "type": "VEC4"
    },
    {
      "bufferView": 1,
      "byteOffset": 18168,
      "componentType": 5126,
      "count": 2122,
      "max": [
        0.9996989965438843,
        0.9745190143585205
      ],
      "min": [
        0.0003009999927598983,
        0.0003009999927598983
      ],
      "type": "VEC2"
    },
    {
      "bufferView": 0,
      "byteOffset": 37536,
      "componentType": 5125,
      "count": 8424,
      "type": "SCALAR"
    },
    {
      "bufferView": 2,
      "byteOffset": 105432,
      "componentType": 5126,
      "count": 801,
      "max": [
        1.6496679782867432,
        0.48644500970840454,
        1.6496679782867432
      ],
      "min": [
        -1.6496679782867432,
        -0.48644500970840454,
        -1.9994839429855347
      ],
      "type": "VEC3"
    },
    {
      "bufferView": 2,
      "byteOffset": 115044,
      "componentType": 5126,
      "count": 801,
      "max": [
        1.0,
        1.0,
        1.0
      ],
      "min": [
        -1.0,
        -1.0,
        -1.0
      ],
      "type": "VEC3"
    },
    {
      "bufferView": 3,
      "byteOffset": 70288,
      "componentType": 5126,
      "count": 801,
      "max": [
        0.6345676183700562,
        0.9995840191841125,
        0.995236873626709,
        1.0
      ],
      "min": [
        -1.0,
        -1.0,
        -0.9978665113449097,
        1.0
      ],
      "type": "VEC4"
    },
    {
      "bufferView": 1,
      "byteOffset": 35144,
      "componentType": 5126,
      "count": 801,
      "max": [
        0.8734400272369385,
        0.9997230172157288
      ],
      "min": [
        0.0002770000137388706,
        0.0002770000137388706
      ],
      "type": "VEC2"
    },
    {
      "bufferView": 0,
      "byteOffset": 71232,
      "componentType": 5125,
      "count": 2628,
      "type": "SCALAR"
    }
  ],
  "asset": {
    "extras": {
      "author": "gozdemrl (https://sketchfab.com/gozdemrl)",
      "license": "CC-BY-4.0 (http://creativecommons.org/licenses/by/4.0/)",
      "source": "https://sketchfab.com/3d-models/alarm-clock-be07b36086df441291df751c6d528d2f",
      "title": "Alarm Clock"
    },
    "generator": "Sketchfab-12.78.0",
    "version": "2.0"
  },
  "bufferViews": [
    {
      "buffer": 0,
      "byteLength": 81744,
      "name": "floatBufferViews",
      "target": 34963
    },
    {
      "buffer": 0,
      "byteLength": 41552,
      "byteOffset": 81744,
      "byteStride": 8,
      "name": "floatBufferViews",
      "target": 34962
    },
    {
      "buffer": 0,
      "byteLength": 124656,
      "byteOffset": 123296,
      "byteStride": 12,
      "name": "floatBufferViews",
      "target": 34962
    },
    {
      "buffer": 0,
      "byteLength": 83104,
      "byteOffset": 247952,
      "byteStride": 16,
      "name": "floatBufferViews",
      "target": 34962
    }
  ],
  "buffers": [
    {
      "byteLength": 331056,
      "uri": "scene.bin"
    }
  ],
  "images": [
    {
      "uri": "textures/saat_baseColor.jpeg"
    },
    {
      "uri": "textures/saat_metallicRoughness.png"
    },
    {
      "uri": "textures/saat_normal.png"
    },
    {
      "uri": "textures/body_baseColor.jpeg"
    },
    {
      "uri": "textures/body_metallicRoughness.png"
    },
    {
      "uri": "textures/body_normal.png"
    },
    {
      "uri": "textures/metal2_baseColor.jpeg"
    },
    {
      "uri": "textures/metal2_metallicRoughness.png"
    },
    {
      "uri": "textures/metal2_normal.png"
    },
    {
      "uri": "textures/akrep_baseColor.jpeg"
    },
    {
      "uri": "textures/akrep_metallicRoughness.png"
    },
    {
      "uri": "textures/akrep_normal.png"
    },
    {
      "uri": "textures/metal_baseColor.jpeg"
    },
    {
      "uri": "textures/metal_metallicRoughness.png"
    },
    {
      "uri": "textures/metal_normal.png"
    }
  ],
  "materials": [
    {
      "doubleSided": true,
      "name": "saat",
      "normalTexture": {
        "index": 2
      },
      "occlusionTexture": {
        "index": 1
      },
      "pbrMetallicRoughness": {
        "baseColorTexture": {
          "index": 0
        },
        "metallicRoughnessTexture": {
          "index": 1
        }
      }
    },
    {
      "doubleSided": true,
      "name": "body",
      "normalTexture": {
        "index": 5
      },
      "occlusionTexture": {
        "index": 4
      },
      "pbrMetallicRoughness": {
        "baseColorTexture": {
          "index": 3
        },
        "metallicRoughnessTexture": {
          "index": 4
        }
      }
    },
    {
      "doubleSided": true,
      "name": "metal2",
      "normalTexture": {
        "index": 8
      },
      "occlusionTexture": {
        "index": 7
      },
      "pbrMetallicRoughness": {
        "baseColorTexture": {
          "index": 6
        },
        "metallicRoughnessTexture": {
          "index": 7
        }
      }
    },
    {
      "doubleSided": true,
      "name": "akrep",
      "normalTexture": {
        "index": 11
      },
      "occlusionTexture": {
        "index": 10
      },
      "pbrMetallicRoughness": {
        "baseColorTexture": {
          "index": 9
        },
        "metallicRoughnessTexture": {
          "index": 10
        }
      }
    },
    {
      "doubleSided": true,
      "name": "metal",
      "normalTexture": {
        "index": 14
      },
      "occlusionTexture": {
        "index": 13
      },
      "pbrMetallicRoughness": {
        "baseColorTexture": {
          "index": 12
        },
        "metallicRoughnessTexture": {
          "index": 13
        }
      }
    }
  ],
  "meshes": [
    {
      "name": "defaultMaterial",
      "primitives": [
        {
          "attributes": {
            "NORMAL": 1,
            "POSITION": 0,
            "TANGENT": 2,
            "TEXCOORD_0": 3
          },
          "indices": 4,
          "material": 4,
          "mode": 4
        }
      ]
    },
    {
      "name": "defaultMaterial",
      "primitives": [
        {
          "attributes": {
            "NORMAL": 6,
            "POSITION": 5,
            "TANGENT": 7,
            "TEXCOORD_0": 8
          },
          "indices": 9,
          "material": 3,
          "mode": 4
        }
      ]
    },
    {
      "name": "defaultMaterial",
      "primitives": [
        {
          "attributes": {
            "NORMAL": 11,
            "POSITION": 10,
            "TANGENT": 12,
            "TEXCOORD_0": 13
          },
          "indices": 14,
          "material": 2,
          "mode": 4
        }
      ]
    },
    {
      "name": "defaultMaterial",
      "primitives": [
        {
          "attributes": {
            "NORMAL": 16,
            "POSITION": 15,
            "TANGENT": 17,
            "TEXCOORD_0": 18
          },
          "indices": 19,
          "material": 1,
          "mode": 4
        }
      ]
    },
    {
      "name": "defaultMaterial",
      "primitives": [
        {
          "attributes": {
            "NORMAL": 21,
            "POSITION": 20,
            "TANGENT": 22,
            "TEXCOORD_0": 23
          },
          "indices": 24,
          "material": 0,
          "mode": 4
        }
      ]
    }
  ],
  "nodes": [
    {
      "children": [
        1
      ],
      "matrix": [
        1.0,
        0.0,
        0.0,
        0.0,
        0.0,
        2.220446049250313e-16,
        -1.0,
        0.0,
        0.0,
        1.0,
        2.220446049250313e-16,
        0.0,
        0.0,
        0.0,
        0.0,
        1.0
      ],
      "name": "Sketchfab_model"
    },
    {
      "children": [
        2,
        4,
        6,
        8,
        10
      ],
      "matrix": [
        1.0,
        0.0,
        0.0,
        0.0,
        0.0,
        -4.371139006309477e-08,
        0.999999999999999,
        0.0,
        0.0,
        -0.999999999999999,
        -4.371139006309477e-08,
        0.0,
        0.0,
        0.0,
        0.0,
        1.0
      ],
      "name": "Collada visual scene group"
    },
    {
      "children": [
        3
      ],
      "matrix": [
        5.13581,
        1.034012,
        0.0,
        0.0,
        0.0,
        0.0,
        -5.238866,
        0.0,
        -2.019902,
        10.032606,
        0.0,
        0.0,
        -33.026825,
        167.479767,
        0.0,
        1.0
      ],
      "name": "Cylinder.002"
    },
    {
      "mesh": 0,
      "name": "defaultMaterial"
    },
    {
      "children": [
        5
      ],
      "matrix": [
        100.0,
        0.0,
        0.0,
        0.0,
        0.0,
        -1.6e-05,
        -100.0,
        0.0,
        0.0,
        100.0,
        -1.6e-05,
        0.0,
        0.0,
        0.0,
        0.0,
        1.0
      ],
      "name": "Cube.002"
    },
    {
      "mesh": 1,
      "name": "defaultMaterial"
    },
    {
      "children": [
        7
      ],
      "matrix": [
        100.0,
        0.0,
        0.0,
        0.0,
        0.0,
        -1.6e-05,
        -100.0,
        0.0,
        0.0,
        100.0,
        -1.6e-05,
        0.0,
        0.0,
        0.0,
        0.0,
        1.0
      ],
      "name": "Cube"
    },
    {
      "mesh": 2,
      "name": "defaultMaterial"
    },
    {
      "children": [
        9
      ],
      "matrix": [
        100.0,
        0.0,
        0.0,
        0.0,
        0.0,
        -1.6e-05,
        -100.0,
        0.0,
        0.0,
        100.0,
        -1.6e-05,
        0.0,
        0.0,
        0.0,
        0.0,
        1.0
      ],
      "name": "Cylinder.001"
    },
    {
      "mesh": 3,
      "name": "defaultMaterial"
    },
    {
      "children": [
        11
      ],
      "matrix": [
        100.0,
        0.0,
        0.0,
        0.0,
        0.0,
        -1.6e-05,
        -100.0,
        0.0,
        0.0,
        100.0,
        -1.6e-05,
        0.0,
        0.0,
        0.0,
        0.0,
        1.0
      ],
      "name": "Cylinder"
    },
    {
      "mesh": 4,
      "name": "defaultMaterial"
    }
  ],
  "samplers": [
    {
      "magFilter": 9729,
      "minFilter": 9987,
      "wrapS": 10497,
      "wrapT": 10497
    }
  ],
  "scene": 0,
  "scenes": [
    {
      "name": "Sketchfab_Scene",
      "nodes": [
        0
      ]
    }
  ],
  "textures": [
    {
      "sampler": 0,
      "source": 0
    },
    {
      "sampler": 0,
      "source": 1
    },
    {
      "sampler": 0,
      "source": 2
    },
    {
      "sampler": 0,
      "source": 3
    },
    {
      "sampler": 0,
      "source": 4
    },
    {
      "sampler": 0,
      "source": 5
    },
    {
      "sampler": 0,
      "source": 6
    },
    {
      "sampler": 0,
      "source": 7
    },
    {
      "sampler": 0,
      "source": 8
    },
    {
      "sampler": 0,
      "source": 9
    },
    {
      "sampler": 0,
      "source": 10
    },
    {
      "sampler": 0,
      "source": 11
    },
    {
      "sampler": 0,
      "source": 12
    },
    {
      "sampler": 0,
      "source": 13
    },
    {
      "sampler": 0,
      "source": 14
    }
  ]
}
